# xmcd
#
# Track frame offsets:
#	150
#	19109
#	34037
#	49547
#	62456
#	75279
#	91251
#	107885
#	123986
#	134875
#	148296
#	163428
#
# Disc length: 2329 seconds
#
# Revision: 1
# Processed by: cddbd v1.5.1PL2 Copyright (c) Steve Scherf et al.
# Submitted via: audiograbber 1.83.01
#
DISCID=a309170c
DTITLE=Gillie - Keep On, Keeping On
DYEAR=2005
DGENRE=Country
TTITLE0=Dream
TTITLE1=Nothing I'd Rather Do
TTITLE2=Don't Want To Wake Up
TTITLE3=Keep On Keeping On
TTITLE4=Mission Of My Heart
TTITLE5=Making Ends Meet
TTITLE6=I Broke My Own Heart
TTITLE7=I'm A Very Good Forgetter
TTITLE8=Where The Sun Don't Shine
TTITLE9=Heads I Win, Tails You Lose
TTITLE10=I Won't Forget
TTITLE11=I Gotta Know
EXTD=
EXTT0=
EXTT1=
EXTT2=
EXTT3=
EXTT4=
EXTT5=
EXTT6=
EXTT7=
EXTT8=
EXTT9=
EXTT10=
EXTT11=
PLAYORDER=
